<?xml version="1.0" encoding="UTF-8" standalone="no"?>
<!-- Created with Inkscape (http://www.inkscape.org/) -->

<svg
   width="165.81966mm"
   height="33.721973mm"
   viewBox="0 0 165.81966 33.721973"
   version="1.1"
   id="svg1"
   xml:space="preserve"
   inkscape:version="1.3.2 (091e20e, 2023-11-25, custom)"
   sodipodi:docname="BitWeights.svg"
   xmlns:inkscape="http://www.inkscape.org/namespaces/inkscape"
   xmlns:sodipodi="http://sodipodi.sourceforge.net/DTD/sodipodi-0.dtd"
   xmlns="http://www.w3.org/2000/svg"
   xmlns:svg="http://www.w3.org/2000/svg"><sodipodi:namedview
     id="namedview1"
     pagecolor="#ffffff"
     bordercolor="#000000"
     borderopacity="0.25"
     inkscape:showpageshadow="2"
     inkscape:pageopacity="0.0"
     inkscape:pagecheckerboard="0"
     inkscape:deskcolor="#d1d1d1"
     inkscape:document-units="mm"
     inkscape:zoom="0.80087682"
     inkscape:cx="66.177468"
     inkscape:cy="432.6508"
     inkscape:window-width="1920"
     inkscape:window-height="1137"
     inkscape:window-x="1912"
     inkscape:window-y="-8"
     inkscape:window-maximized="1"
     inkscape:current-layer="layer1"><inkscape:page
       x="0"
       y="0"
       width="165.81966"
       height="33.721973"
       id="page1"
       margin="0"
       bleed="0" /><inkscape:page
       x="-15.70568"
       y="-34.117813"
       width="210.01566"
       height="297.01068"
       id="page2"
       margin="0"
       bleed="0" /></sodipodi:namedview><defs
     id="defs1"><clipPath
       clipPathUnits="userSpaceOnUse"
       id="clipPath2"><path
         d="M 0,0 V 1122.4 H 793.59998 V 0 Z"
         transform="translate(-60,-158.72001)"
         clip-rule="evenodd"
         id="path2" /></clipPath><clipPath
       clipPathUnits="userSpaceOnUse"
       id="clipPath4"><path
         d="M 0,0 V 1122.4 H 793.59998 V 0 Z"
         transform="translate(-137.44,-158.72001)"
         clip-rule="evenodd"
         id="path4" /></clipPath><clipPath
       clipPathUnits="userSpaceOnUse"
       id="clipPath6"><path
         d="M 0,0 V 1122.4 H 793.59998 V 0 Z"
         transform="translate(-420.79999,-158.72001)"
         clip-rule="evenodd"
         id="path6" /></clipPath><clipPath
       clipPathUnits="userSpaceOnUse"
       id="clipPath8"><path
         d="m -8,-27.68 h 43.040001 v 40.8 H -8 Z"
         clip-rule="evenodd"
         id="path8" /></clipPath><clipPath
       clipPathUnits="userSpaceOnUse"
       id="clipPath10"><path
         d="m 66.720001,172.32001 h 18.080002 v 40.79998 H 66.720001 Z"
         clip-rule="evenodd"
         id="path10" /></clipPath><clipPath
       clipPathUnits="userSpaceOnUse"
       id="clipPath12"><path
         d="M -8.18,-21.6 H 5.26 V 19.200001 H -8.18 Z"
         clip-rule="evenodd"
         id="path12" /></clipPath><clipPath
       clipPathUnits="userSpaceOnUse"
       id="clipPath14"><path
         d="m 1857.12,3285.9199 h 127.52 v 777.9202 h -127.52 z"
         transform="translate(-1857.12,-3569.6)"
         clip-rule="evenodd"
         id="path14" /></clipPath><clipPath
       clipPathUnits="userSpaceOnUse"
       id="clipPath16"><path
         d="M -0.64,-26.719999 H 53.439999 V 14.08 H -0.64 Z"
         transform="translate(-3e-6)"
         clip-rule="evenodd"
         id="path16" /></clipPath><clipPath
       clipPathUnits="userSpaceOnUse"
       id="clipPath18"><path
         d="M -8.18,-21.6 H 5.26 V 19.200001 H -8.18 Z"
         transform="translate(5e-6)"
         clip-rule="evenodd"
         id="path18" /></clipPath><clipPath
       clipPathUnits="userSpaceOnUse"
       id="clipPath20"><path
         d="M 2879.8401,3285.9199 H 3007.2 v 777.9202 h -127.3599 z"
         transform="translate(-2879.8401,-3569.6)"
         clip-rule="evenodd"
         id="path20" /></clipPath><clipPath
       clipPathUnits="userSpaceOnUse"
       id="clipPath22"><path
         d="M 3019.3601,3285.9199 H 3262.24 v 777.9202 h -242.8799 z"
         transform="translate(-3019.3601,-3569.6)"
         clip-rule="evenodd"
         id="path22" /></clipPath><clipPath
       clipPathUnits="userSpaceOnUse"
       id="clipPath24"><path
         d="m 3259.2,3285.9199 h 191.1999 v 777.9202 H 3259.2 Z"
         transform="translate(-3259.2,-3569.6)"
         clip-rule="evenodd"
         id="path24" /></clipPath><clipPath
       clipPathUnits="userSpaceOnUse"
       id="clipPath26"><path
         d="M -5.29,-20.799999 H 12.95 V 20 H -5.29 Z"
         transform="translate(2e-6)"
         clip-rule="evenodd"
         id="path26" /></clipPath><clipPath
       clipPathUnits="userSpaceOnUse"
       id="clipPath28"><path
         d="M -8.18,-21.6 H 5.26 V 19.200001 H -8.18 Z"
         transform="translate(5e-6)"
         clip-rule="evenodd"
         id="path28" /></clipPath><clipPath
       clipPathUnits="userSpaceOnUse"
       id="clipPath30"><path
         d="m 4973.7598,3285.9199 h 191.04 v 777.9202 h -191.04 z"
         transform="translate(-4973.7597,-3569.6)"
         clip-rule="evenodd"
         id="path30" /></clipPath><clipPath
       clipPathUnits="userSpaceOnUse"
       id="clipPath32"><path
         d="M -8.18,-21.6 H 5.26 V 19.200001 H -8.18 Z"
         clip-rule="evenodd"
         id="path32" /></clipPath><clipPath
       clipPathUnits="userSpaceOnUse"
       id="clipPath34"><path
         d="m 5890.0801,3285.9199 h 191.1997 v 777.9202 h -191.1997 z"
         transform="translate(-5890.08,-3569.6)"
         clip-rule="evenodd"
         id="path34" /></clipPath><clipPath
       clipPathUnits="userSpaceOnUse"
       id="clipPath36"><path
         d="M -8.18,-21.6 H 5.26 V 19.200001 H -8.18 Z"
         clip-rule="evenodd"
         id="path36" /></clipPath><clipPath
       clipPathUnits="userSpaceOnUse"
       id="clipPath38"><path
         d="m 6806.5601,3285.9199 h 191.1997 v 777.9202 h -191.1997 z"
         transform="translate(-6806.5601,-3569.6)"
         clip-rule="evenodd"
         id="path38" /></clipPath><clipPath
       clipPathUnits="userSpaceOnUse"
       id="clipPath40"><path
         d="M -3.44,-15.2 H 3.28 V 25.6 H -3.44 Z"
         transform="translate(-4.9999999e-6)"
         clip-rule="evenodd"
         id="path40" /></clipPath><clipPath
       clipPathUnits="userSpaceOnUse"
       id="clipPath42"><path
         d="M -8.18,-21.6 H 5.26 V 19.200001 H -8.18 Z"
         clip-rule="evenodd"
         id="path42" /></clipPath><clipPath
       clipPathUnits="userSpaceOnUse"
       id="clipPath44"><path
         d="m 8311.6797,3285.9199 h 242.8799 v 777.9202 h -242.8799 z"
         transform="translate(-8311.6797,-3569.6)"
         clip-rule="evenodd"
         id="path44" /></clipPath><clipPath
       clipPathUnits="userSpaceOnUse"
       id="clipPath46"><path
         d="m 8551.5195,3285.9199 h 191.2002 v 777.9202 h -191.2002 z"
         transform="translate(-8551.5196,-3569.6)"
         clip-rule="evenodd"
         id="path46" /></clipPath><clipPath
       clipPathUnits="userSpaceOnUse"
       id="clipPath48"><path
         d="M -8.18,-21.6 H 5.26 V 19.200001 H -8.18 Z"
         transform="translate(2e-6)"
         clip-rule="evenodd"
         id="path48" /></clipPath><clipPath
       clipPathUnits="userSpaceOnUse"
       id="clipPath50"><path
         d="m 9467.8398,3285.9199 h 242.8799 v 777.9202 h -242.8799 z"
         transform="translate(-9467.8399,-3569.6)"
         clip-rule="evenodd"
         id="path50" /></clipPath><clipPath
       clipPathUnits="userSpaceOnUse"
       id="clipPath52"><path
         d="m 9707.6797,3285.9199 h 191.2002 v 777.9202 h -191.2002 z"
         transform="translate(-9707.6797,-3569.6)"
         clip-rule="evenodd"
         id="path52" /></clipPath><clipPath
       clipPathUnits="userSpaceOnUse"
       id="clipPath54"><path
         d="M -8.18,-21.6 H 5.26 V 19.200001 H -8.18 Z"
         transform="translate(3.9999999e-6)"
         clip-rule="evenodd"
         id="path54" /></clipPath><clipPath
       clipPathUnits="userSpaceOnUse"
       id="clipPath56"><path
         d="m 10621.1,3285.9199 h 242.7 v 777.9202 h -242.7 z"
         transform="translate(-10621.1,-3569.6)"
         clip-rule="evenodd"
         id="path56" /></clipPath><clipPath
       clipPathUnits="userSpaceOnUse"
       id="clipPath58"><path
         d="m 10860.8,3285.9199 h 191.2 v 777.9202 h -191.2 z"
         transform="translate(-10860.8,-3569.6)"
         clip-rule="evenodd"
         id="path58" /></clipPath><clipPath
       clipPathUnits="userSpaceOnUse"
       id="clipPath60"><path
         d="M -5.29,-20.799999 H 12.95 V 20 H -5.29 Z"
         clip-rule="evenodd"
         id="path60" /></clipPath><clipPath
       clipPathUnits="userSpaceOnUse"
       id="clipPath62"><path
         d="M -8.18,-21.6 H 5.26 V 19.200001 H -8.18 Z"
         transform="translate(1.9999999e-6)"
         clip-rule="evenodd"
         id="path62" /></clipPath><clipPath
       clipPathUnits="userSpaceOnUse"
       id="clipPath64"><path
         d="m 12575.4,3285.9199 h 242.7 v 777.9202 h -242.7 z"
         transform="translate(-12575.4,-3569.6)"
         clip-rule="evenodd"
         id="path64" /></clipPath><clipPath
       clipPathUnits="userSpaceOnUse"
       id="clipPath66"><path
         d="m 12815,3285.9199 h 209.5 v 777.9202 H 12815 Z"
         transform="translate(-12815,-3569.6)"
         clip-rule="evenodd"
         id="path66" /></clipPath><clipPath
       clipPathUnits="userSpaceOnUse"
       id="clipPath71"><path
         d="M 0,0 V 1122.4 H 793.59998 V 0 Z"
         clip-rule="evenodd"
         id="path71" /></clipPath><clipPath
       clipPathUnits="userSpaceOnUse"
       id="clipPath73"><path
         d="M 0,0 V 1122.4 H 793.59998 V 0 Z"
         clip-rule="evenodd"
         id="path73" /></clipPath></defs><g
     inkscape:label="Layer 1"
     inkscape:groupmode="layer"
     id="layer1"
     transform="translate(-235.70568,-34.117812)" /><g
     id="g1"
     inkscape:groupmode="layer"
     inkscape:label="1"
     transform="matrix(0.26458333,0,0,0.26458333,-15.705669,-34.117812)"><path
       id="path1"
       d="m 0,0 c 0.32,-2.4 2.24,-4.32 4.64,-4.64 h 17.6 c 2.399999,-0.32 4.319999,-2.24 4.639999,-4.8 0.320002,2.56 2.240002,4.48 4.800001,4.8 h 16.48 c 2.560001,0.32 4.479999,2.24 4.639999,4.64"
       style="fill:none;stroke:#c00000;stroke-width:1.28;stroke-linecap:round;stroke-linejoin:round;stroke-miterlimit:10;stroke-dasharray:none;stroke-opacity:1"
       transform="translate(60,158.72)"
       clip-path="url(#clipPath2)" /><path
       id="path3"
       d="m 0,0 c 0.32,-2.4 2.24,-4.32 4.8,-4.64 h 110.72 c 2.4,-0.32 4.48,-2.24 4.64,-4.8 0.32,2.56 2.24,4.48 4.8,4.8 h 106.56 c 2.4,0.32 4.32,2.24 4.64,4.64"
       style="fill:none;stroke:#00b050;stroke-width:1.28;stroke-linecap:round;stroke-linejoin:round;stroke-miterlimit:10;stroke-dasharray:none;stroke-opacity:1"
       transform="translate(137.44,158.72)"
       clip-path="url(#clipPath4)" /><path
       id="path5"
       d="m 0,0 c 0.32,-2.4 2.24,-4.32 4.8,-4.64 h 125.12 c 2.56,-0.32 4.47999,-2.24 4.8,-4.8 0.31999,2.56 2.24001,4.48 4.64,4.8 h 120.48 c 2.55999,0.32 4.48001,2.24 4.80001,4.64"
       style="fill:none;stroke:#0000ff;stroke-width:1.28;stroke-linecap:round;stroke-linejoin:round;stroke-miterlimit:10;stroke-dasharray:none;stroke-opacity:1"
       transform="translate(420.79999,158.72)"
       clip-path="url(#clipPath6)" /><path
       id="path7"
       d="M 0,0 H -5.28 V -22.08 H 0 v 0.959999 H -3.36 V -0.96 H 0 Z"
       style="fill:#c00000;fill-opacity:1;fill-rule:nonzero;stroke:none"
       transform="translate(66.239998,199.99999)"
       clip-path="url(#clipPath8)" /><path
       id="path9"
       d="M 68.459999,189.75999 V 188.16 h 14.440003 v 1.59999 z"
       style="fill:#c00000;fill-opacity:1;fill-rule:nonzero;stroke:none"
       clip-path="url(#clipPath10)" /><path
       id="path11"
       d="M 0,0 C 0.38,0.01 0.68,-0.01 0.9,-0.06 1.13,-0.1 1.31,-0.18 1.45,-0.3 1.59,-0.41 1.69,-0.56 1.77,-0.75 1.85,-0.93 1.95,-1.21 2.07,-1.6 H 3.03 L 2.83,1.92 H -6.58 V 1.31 c 0.33,-0.8 0.77,-1.62 1.33,-2.47 0.56,-0.84 1.36,-1.83 2.39,-2.98 0.89,-0.97 1.53,-1.71 1.92,-2.23 0.44,-0.54 0.76,-1.02 0.97,-1.42 0.21,-0.4 0.36,-0.78 0.45,-1.14 0.1,-0.35 0.14,-0.71 0.14,-1.08 0,-0.57 -0.09,-1.08 -0.27,-1.52 -0.18,-0.44 -0.47,-0.78 -0.85,-1.04 -0.38,-0.25 -0.85,-0.38 -1.43,-0.39 -1.42,0.01 -2.38,0.81 -2.88,2.4 h -1.45 v -2.21 c 0.93,-0.45 1.8,-0.78 2.61,-0.99 0.82,-0.2 1.54,-0.31 2.18,-0.32 1.44,0.01 2.52,0.33 3.25,0.96 0.73,0.64 1.09,1.56 1.09,2.76 0,0.41 -0.04,0.78 -0.12,1.12 -0.08,0.35 -0.2,0.69 -0.37,1.02 -0.17,0.34 -0.4,0.69 -0.69,1.07 -0.29,0.38 -0.61,0.77 -0.97,1.16 -0.35,0.4 -0.96,1.06 -1.82,1.96 -1.44,1.55 -2.51,2.89 -3.19,4.03 z"
       style="fill:#c00000;fill-opacity:1;fill-rule:nonzero;stroke:none"
       transform="translate(92.82,193.91999)"
       clip-path="url(#clipPath12)" /><path
       id="path13"
       d="m 61.665567,-46.206145 c -1.407658,6.405764 -2.296705,11.321816 -2.667141,14.897127 -0.444523,3.57531 -0.592698,6.852678 -0.592698,9.832103 0,4.76708 1.037222,8.193419 3.259839,10.130046 2.370792,2.011112 6.371503,3.2028821 12.150308,3.5753102 l -1.778094,7.74650577 H 8.9154483 L 10.693542,-7.7715588 c 3.926624,-0.595885 6.890114,-1.5641982 8.89047,-2.9794252 2.14853,-1.564198 3.852536,-3.57531 5.037932,-5.958851 1.333571,-2.532511 2.667141,-5.660908 3.852537,-9.236218 1.185396,-3.724282 2.96349,-10.800417 5.334282,-21.153919 L 60.480171,-168.95847 c 2.370792,-10.72593 3.556188,-19.21729 3.556188,-25.62305 0,-4.91606 -1.333571,-8.41688 -3.852537,-10.42799 -2.370792,-1.93663 -6.223329,-3.05391 -11.55761,-3.27737 l 1.481745,-7.74651 h 63.122333 l -1.77809,7.74651 c -4.00072,0.81934 -6.81603,1.78766 -8.59412,2.97943 -1.7781,1.04279 -3.408018,2.60699 -4.741589,4.76708 -1.185395,2.01111 -2.593053,5.28848 -4.148885,9.8321 -1.407658,4.39465 -3.185752,11.61976 -5.334282,21.7498 z m 0,0"
       style="fill:#c00000;fill-opacity:1;fill-rule:nonzero;stroke:none"
       aria-label="ð¼"
       transform="matrix(0.052725,0,0,0.052443,97.916652,187.20053)"
       clip-path="url(#clipPath14)" /><path
       id="path15"
       d="M 0,0 H 3.2 V -20.16 H 0 v -0.960001 H 5.12 V 0.96 H 0 Z"
       style="fill:#c00000;fill-opacity:1;fill-rule:nonzero;stroke:none"
       transform="translate(106.88,199.03999)"
       clip-path="url(#clipPath16)" /><path
       id="path17"
       d="M 0,0 C 0.38,0.01 0.68,-0.01 0.9,-0.06 1.13,-0.1 1.31,-0.18 1.45,-0.3 1.59,-0.41 1.69,-0.56 1.77,-0.75 1.85,-0.93 1.95,-1.21 2.07,-1.6 H 3.03 L 2.83,1.92 H -6.58 V 1.31 c 0.33,-0.8 0.77,-1.62 1.33,-2.47 0.56,-0.84 1.36,-1.83 2.39,-2.98 0.89,-0.97 1.53,-1.71 1.92,-2.23 0.44,-0.54 0.76,-1.02 0.97,-1.42 0.21,-0.4 0.36,-0.78 0.45,-1.14 0.1,-0.35 0.14,-0.71 0.14,-1.08 0,-0.57 -0.09,-1.08 -0.27,-1.52 -0.18,-0.44 -0.47,-0.78 -0.85,-1.04 -0.38,-0.25 -0.85,-0.38 -1.43,-0.39 -1.42,0.01 -2.38,0.81 -2.88,2.4 h -1.45 v -2.21 c 0.93,-0.45 1.8,-0.78 2.61,-0.99 0.82,-0.2 1.54,-0.31 2.18,-0.32 1.44,0.01 2.52,0.33 3.25,0.96 0.73,0.64 1.09,1.56 1.09,2.76 0,0.41 -0.04,0.78 -0.12,1.12 -0.08,0.35 -0.2,0.69 -0.37,1.02 -0.17,0.34 -0.4,0.69 -0.69,1.07 -0.29,0.38 -0.61,0.77 -0.97,1.16 -0.35,0.4 -0.96,1.06 -1.82,1.96 -1.44,1.55 -2.51,2.89 -3.19,4.03 z"
       style="fill:#00b050;fill-opacity:1;fill-rule:nonzero;stroke:none"
       transform="translate(146.74,193.91999)"
       clip-path="url(#clipPath18)" /><path
       id="path19"
       d="m 61.645806,-46.206145 c -1.407658,6.405764 -2.296705,11.321816 -2.667141,14.897127 -0.444524,3.57531 -0.592698,6.852678 -0.592698,9.832103 0,4.76708 1.037221,8.193419 3.259839,10.130046 2.370792,2.011112 6.371503,3.2028821 12.150308,3.5753102 L 72.01802,-0.02505303 H 8.8956872 L 10.673781,-7.7715588 c 3.926624,-0.595885 6.890114,-1.5641982 8.89047,-2.9794252 2.14853,-1.564198 3.852536,-3.57531 5.037932,-5.958851 1.333571,-2.532511 2.667141,-5.660908 3.852537,-9.236218 1.185396,-3.724282 2.96349,-10.800417 5.334282,-21.153919 L 60.46041,-168.95847 c 2.370792,-10.72593 3.556188,-19.21729 3.556188,-25.62305 0,-4.91606 -1.333571,-8.41688 -3.852537,-10.42799 -2.370792,-1.93663 -6.223329,-3.05391 -11.55761,-3.27737 l 1.481745,-7.74651 h 63.122334 l -1.7781,7.74651 c -4.00071,0.81934 -6.81602,1.78766 -8.59412,2.97943 -1.77809,1.04279 -3.408009,2.60699 -4.74158,4.76708 -1.185396,2.01111 -2.593053,5.28848 -4.148885,9.8321 -1.407658,4.39465 -3.185752,11.61976 -5.334282,21.7498 z m 0,0"
       style="fill:#00b050;fill-opacity:1;fill-rule:nonzero;stroke:none"
       aria-label="ð¼"
       transform="matrix(0.052725,0,0,0.052443,151.83957,187.20053)"
       clip-path="url(#clipPath20)" /><path
       id="path21"
       d="M 23.403051,-82.257191 V -103.11317 H 217.51163 v 20.855979 z m 0,0"
       style="fill:#00b050;fill-opacity:1;fill-rule:nonzero;stroke:none"
       aria-label="âˆ’"
       transform="matrix(0.052725,0,0,0.052443,159.19576,187.20053)"
       clip-path="url(#clipPath22)" /><path
       id="path23"
       d="m 109.32482,-41.439064 c 0,6.182307 0.29635,10.874902 0.88905,14.003298 0.74087,2.979426 2.07444,5.511937 3.85254,7.448564 1.77809,2.011112 4.22297,3.57531 7.40872,4.76708 3.33393,1.042799 7.48281,1.787655 12.44666,2.38354 4.88976,0.595885 11.33535,1.042799 19.26268,1.19177 V -0.02505303 H 37.015673 V -11.644812 c 11.631697,-0.372428 19.929468,-0.968313 24.893314,-1.787655 4.889758,-0.968313 8.668208,-2.38354 11.261261,-4.171195 2.741228,-1.936627 4.741584,-4.543624 5.92698,-7.746506 1.185396,-3.128396 1.778094,-8.491362 1.778094,-16.088896 V -169.85229 c 0,-4.1712 -0.81496,-7.15062 -2.370792,-8.93828 -1.407658,-1.93663 -3.482101,-2.97943 -6.223329,-2.97943 -3.408013,0 -8.223684,1.78766 -14.5211,5.36297 -6.149241,3.42634 -13.780227,8.04445 -22.818871,14.0033 l -6.816027,-11.9177 73.494547,-44.39344 h 8.59412 c -0.5927,10.13005 -0.88905,24.28232 -0.88905,42.30784 z m 0,0"
       style="fill:#00b050;fill-opacity:1;fill-rule:nonzero;stroke:none"
       aria-label="1"
       transform="matrix(0.052725,0,0,0.052443,171.84132,187.20053)"
       clip-path="url(#clipPath24)" /><path
       id="path25"
       d="M 0,0 V 2.72 H -2.41 V 0 Z M 5.76,0 V 2.72 H 3.35 V 0 Z m 5.76,0 V 2.72 H 9.11 V 0 Z"
       style="fill:#00b050;fill-opacity:1;fill-rule:nonzero;stroke:none"
       transform="translate(212.33,193.11999)"
       clip-path="url(#clipPath26)" /><path
       id="path27"
       d="M 0,0 C 0.38,0.01 0.68,-0.01 0.9,-0.06 1.13,-0.1 1.31,-0.18 1.45,-0.3 1.59,-0.41 1.69,-0.56 1.77,-0.75 1.85,-0.93 1.95,-1.21 2.07,-1.6 H 3.03 L 2.83,1.92 H -6.58 V 1.31 c 0.33,-0.8 0.77,-1.62 1.33,-2.47 0.56,-0.84 1.36,-1.83 2.39,-2.98 0.89,-0.97 1.53,-1.71 1.92,-2.23 0.44,-0.54 0.76,-1.02 0.97,-1.42 0.21,-0.4 0.36,-0.78 0.45,-1.14 0.1,-0.35 0.14,-0.71 0.14,-1.08 0,-0.57 -0.09,-1.08 -0.27,-1.52 -0.18,-0.44 -0.47,-0.78 -0.85,-1.04 -0.38,-0.25 -0.85,-0.38 -1.43,-0.39 -1.42,0.01 -2.38,0.81 -2.88,2.4 h -1.45 v -2.21 c 0.93,-0.45 1.8,-0.78 2.61,-0.99 0.82,-0.2 1.54,-0.31 2.18,-0.32 1.44,0.01 2.52,0.33 3.25,0.96 0.73,0.64 1.09,1.56 1.09,2.76 0,0.41 -0.04,0.78 -0.12,1.12 -0.08,0.35 -0.2,0.69 -0.37,1.02 -0.17,0.34 -0.4,0.69 -0.69,1.07 -0.29,0.38 -0.61,0.77 -0.97,1.16 -0.35,0.4 -0.96,1.06 -1.82,1.96 -1.44,1.55 -2.51,2.89 -3.19,4.03 z"
       style="fill:#00b050;fill-opacity:1;fill-rule:nonzero;stroke:none"
       transform="translate(257.14001,193.91999)"
       clip-path="url(#clipPath28)" /><path
       id="path29"
       d="m 110.55152,-25.350168 c 5.11202,0 9.2609,-0.297942 12.44666,-0.893828 3.11166,-0.595885 5.63063,-1.564198 7.40872,-2.979425 1.92627,-1.564198 3.40801,-3.57531 4.44524,-5.95885 1.18539,-2.383541 2.66714,-6.033337 4.44523,-11.023874 h 13.3357 l -2.66714,46.18109197 H 20.461429 V -7.7715588 c 4.29706,-10.8749022 10.372214,-22.1222322 18.077288,-33.6675052 7.705073,-11.694245 18.521811,-25.399601 32.598388,-41.116069 12.224395,-13.4819 21.040777,-23.686427 26.375059,-30.688077 5.926976,-7.74651 10.224036,-14.30125 13.039356,-19.66421 2.96349,-5.51194 5.03793,-10.80042 6.22333,-15.79095 1.33357,-4.91606 2.07444,-9.90659 2.07444,-14.89713 0,-7.89548 -1.33357,-14.89713 -3.85254,-20.85598 -2.59305,-6.10782 -6.51967,-10.8749 -11.85396,-14.30124 -5.186103,-3.57531 -11.557606,-5.36296 -19.262679,-5.36296 -19.781295,0 -33.042912,11.02387 -39.710764,33.07162 H 24.906664 v -30.39014 c 12.817093,-6.10782 24.745139,-10.50248 35.858226,-13.10947 11.039,-2.75597 20.892603,-4.1712 29.634898,-4.1712 19.559032,0 34.228312,4.39465 44.156002,13.10947 10.07586,8.56585 15.11379,21.00495 15.11379,37.24282 0,5.58642 -0.59269,10.72593 -1.77809,15.49301 -1.03722,4.76708 -2.66714,9.45968 -5.03793,14.0033 -2.37079,4.61811 -5.55655,9.53416 -9.48317,14.89713 -4.00071,5.21399 -8.44595,10.57696 -13.3357,16.08889 -4.74159,5.36297 -13.03936,14.450214 -24.893318,27.112772 -20.003556,21.079434 -34.598744,39.55187 -43.859649,55.41731 z m 0,0"
       style="fill:#00b050;fill-opacity:1;fill-rule:nonzero;stroke:none"
       aria-label="2"
       transform="matrix(0.052725,0,0,0.052443,262.24148,187.20053)"
       clip-path="url(#clipPath30)" /><path
       id="path31"
       d="M 0,0 C 0.38,0.01 0.68,-0.01 0.9,-0.06 1.13,-0.1 1.31,-0.18 1.45,-0.3 1.59,-0.41 1.69,-0.56 1.77,-0.75 1.85,-0.93 1.95,-1.21 2.07,-1.6 H 3.03 L 2.83,1.92 H -6.58 V 1.31 c 0.33,-0.8 0.77,-1.62 1.33,-2.47 0.56,-0.84 1.36,-1.83 2.39,-2.98 0.89,-0.97 1.53,-1.71 1.92,-2.23 0.44,-0.54 0.76,-1.02 0.97,-1.42 0.21,-0.4 0.36,-0.78 0.45,-1.14 0.1,-0.35 0.14,-0.71 0.14,-1.08 0,-0.57 -0.09,-1.08 -0.27,-1.52 -0.18,-0.44 -0.47,-0.78 -0.85,-1.04 -0.38,-0.25 -0.85,-0.38 -1.43,-0.39 -1.42,0.01 -2.38,0.81 -2.88,2.4 h -1.45 v -2.21 c 0.93,-0.45 1.8,-0.78 2.61,-0.99 0.82,-0.2 1.54,-0.31 2.18,-0.32 1.44,0.01 2.52,0.33 3.25,0.96 0.73,0.64 1.09,1.56 1.09,2.76 0,0.41 -0.04,0.78 -0.12,1.12 -0.08,0.35 -0.2,0.69 -0.37,1.02 -0.17,0.34 -0.4,0.69 -0.69,1.07 -0.29,0.38 -0.61,0.77 -0.97,1.16 -0.35,0.4 -0.96,1.06 -1.82,1.96 -1.44,1.55 -2.51,2.89 -3.19,4.03 z"
       style="fill:#00b050;fill-opacity:1;fill-rule:nonzero;stroke:none"
       transform="translate(305.45999,193.91999)"
       clip-path="url(#clipPath32)" /><path
       id="path33"
       d="m 110.54225,-25.350168 c 5.11202,0 9.26091,-0.297942 12.44666,-0.893828 3.11167,-0.595885 5.63063,-1.564198 7.40873,-2.979425 1.92626,-1.564198 3.40801,-3.57531 4.44523,-5.95885 1.1854,-2.383541 2.66714,-6.033337 4.44524,-11.023874 h 13.3357 l -2.66714,46.18109197 H 20.452165 V -7.7715588 c 4.29706,-10.8749022 10.372214,-22.1222322 18.077288,-33.6675052 7.705073,-11.694245 18.521811,-25.399601 32.598387,-41.116069 12.224396,-13.4819 21.040778,-23.686427 26.37506,-30.688077 5.92698,-7.74651 10.22404,-14.30125 13.03935,-19.66421 2.96349,-5.51194 5.03794,-10.80042 6.22333,-15.79095 1.33357,-4.91606 2.07445,-9.90659 2.07445,-14.89713 0,-7.89548 -1.33357,-14.89713 -3.85254,-20.85598 -2.59305,-6.10782 -6.51968,-10.8749 -11.85396,-14.30124 -5.186107,-3.57531 -11.55761,-5.36296 -19.262683,-5.36296 -19.781295,0 -33.042912,11.02387 -39.710764,33.07162 H 24.897399 v -30.39014 c 12.817094,-6.10782 24.74514,-10.50248 35.858227,-13.10947 11.039,-2.75597 20.892603,-4.1712 29.634898,-4.1712 19.559036,0 34.228306,4.39465 44.155996,13.10947 10.07587,8.56585 15.1138,21.00495 15.1138,37.24282 0,5.58642 -0.5927,10.72593 -1.77809,15.49301 -1.03723,4.76708 -2.66714,9.45968 -5.03794,14.0033 -2.37079,4.61811 -5.55654,9.53416 -9.48316,14.89713 -4.00071,5.21399 -8.44595,10.57696 -13.33571,16.08889 -4.74158,5.36297 -13.03935,14.450214 -24.893312,27.112772 -20.003556,21.079434 -34.598744,39.55187 -43.859649,55.41731 z m 0,0"
       style="fill:#00b050;fill-opacity:1;fill-rule:nonzero;stroke:none"
       aria-label="2"
       transform="matrix(0.052725,0,0,0.052443,310.55447,187.20053)"
       clip-path="url(#clipPath34)" /><path
       id="path35"
       d="M 0,0 C 0.38,0.01 0.68,-0.01 0.9,-0.06 1.13,-0.1 1.31,-0.18 1.45,-0.3 1.59,-0.41 1.69,-0.56 1.77,-0.75 1.85,-0.93 1.95,-1.21 2.07,-1.6 H 3.03 L 2.83,1.92 H -6.58 V 1.31 c 0.33,-0.8 0.77,-1.62 1.33,-2.47 0.56,-0.84 1.36,-1.83 2.39,-2.98 0.89,-0.97 1.53,-1.71 1.92,-2.23 0.44,-0.54 0.76,-1.02 0.97,-1.42 0.21,-0.4 0.36,-0.78 0.45,-1.14 0.1,-0.35 0.14,-0.71 0.14,-1.08 0,-0.57 -0.09,-1.08 -0.27,-1.52 -0.18,-0.44 -0.47,-0.78 -0.85,-1.04 -0.38,-0.25 -0.85,-0.38 -1.43,-0.39 -1.42,0.01 -2.38,0.81 -2.88,2.4 h -1.45 v -2.21 c 0.93,-0.45 1.8,-0.78 2.61,-0.99 0.82,-0.2 1.54,-0.31 2.18,-0.32 1.44,0.01 2.52,0.33 3.25,0.96 0.73,0.64 1.09,1.56 1.09,2.76 0,0.41 -0.04,0.78 -0.12,1.12 -0.08,0.35 -0.2,0.69 -0.37,1.02 -0.17,0.34 -0.4,0.69 -0.69,1.07 -0.29,0.38 -0.61,0.77 -0.97,1.16 -0.35,0.4 -0.96,1.06 -1.82,1.96 -1.44,1.55 -2.51,2.89 -3.19,4.03 z"
       style="fill:#00b050;fill-opacity:1;fill-rule:nonzero;stroke:none"
       transform="translate(353.78,193.91999)"
       clip-path="url(#clipPath36)" /><path
       id="path37"
       d="m 87.406276,2.6564297 c -22.522523,0 -39.340327,-8.9382758 -50.379327,-26.8148277 -11.113087,-18.025523 -16.595543,-45.36175 -16.595543,-81.934192 0,-19.44075 1.62992,-36.20002 5.037933,-50.35229 3.333926,-14.07778 8.07551,-25.69754 14.224751,-34.85928 6.075154,-9.3107 13.409791,-16.16338 21.929824,-20.55803 8.668208,-4.54362 18.151376,-6.85268 28.449503,-6.85268 22.892963,0 40.007113,8.93828 51.268373,26.81483 11.26126,17.87655 16.89189,44.91483 16.89189,81.04037 0,37.391784 -6.07515,65.696324 -18.07729,84.913617 C 128.08017,-6.8777312 110.5215,2.6564297 87.406276,2.6564297 Z M 50.955351,-110.85967 c 0,34.412359 3.111664,59.588502 9.483168,75.677399 6.297415,16.088896 16.151019,24.133344 29.634898,24.133344 12.594833,0 22.003913,-7.523048 28.153153,-22.643632 6.07515,-15.046097 9.18682,-38.509071 9.18682,-70.314441 0,-24.20783 -1.62992,-43.87203 -4.74159,-58.99262 -3.18575,-15.04609 -7.55689,-25.921 -13.03935,-32.47573 -5.55654,-6.55474 -12.372571,-9.8321 -20.44808,-9.8321 -7.112376,0 -13.18753,2.23456 -18.077288,6.55473 -4.963846,4.39465 -8.89047,10.65145 -11.853959,18.77038 -2.96349,8.19342 -5.186108,18.10001 -6.519678,29.79425 -1.185396,11.54528 -1.778094,24.65475 -1.778094,39.32842 z m 0,0"
       style="fill:#00b050;fill-opacity:1;fill-rule:nonzero;stroke:none"
       aria-label="0"
       transform="matrix(0.052725,0,0,0.052443,358.87588,187.20053)"
       clip-path="url(#clipPath38)" /><path
       id="path39"
       d="M 0,0 C 0.4,0.01 0.72,0.15 0.98,0.41 1.24,0.69 1.36,1.03 1.36,1.44 1.36,1.88 1.24,2.23 0.98,2.49 0.72,2.76 0.4,2.89 0,2.88 -0.4,2.89 -0.72,2.76 -0.98,2.49 -1.23,2.23 -1.36,1.88 -1.36,1.44 -1.36,1.03 -1.23,0.69 -0.98,0.41 -0.72,0.15 -0.4,0.01 0,0 Z"
       style="fill:#000000;fill-opacity:1;fill-rule:nonzero;stroke:none"
       transform="translate(397.35999,187.52)"
       clip-path="url(#clipPath40)" /><path
       id="path41"
       d="M 0,0 C 0.38,0.01 0.68,-0.01 0.9,-0.06 1.13,-0.1 1.31,-0.18 1.45,-0.3 1.59,-0.41 1.69,-0.56 1.77,-0.75 1.85,-0.93 1.95,-1.21 2.07,-1.6 H 3.03 L 2.83,1.92 H -6.58 V 1.31 c 0.33,-0.8 0.77,-1.62 1.33,-2.47 0.56,-0.84 1.36,-1.83 2.39,-2.98 0.89,-0.97 1.53,-1.71 1.92,-2.23 0.44,-0.54 0.76,-1.02 0.97,-1.42 0.21,-0.4 0.36,-0.78 0.45,-1.14 0.1,-0.35 0.14,-0.71 0.14,-1.08 0,-0.57 -0.09,-1.08 -0.27,-1.52 -0.18,-0.44 -0.47,-0.78 -0.85,-1.04 -0.38,-0.25 -0.85,-0.38 -1.43,-0.39 -1.42,0.01 -2.38,0.81 -2.88,2.4 h -1.45 v -2.21 c 0.93,-0.45 1.8,-0.78 2.61,-0.99 0.82,-0.2 1.54,-0.31 2.18,-0.32 1.44,0.01 2.52,0.33 3.25,0.96 0.73,0.64 1.09,1.56 1.09,2.76 0,0.41 -0.04,0.78 -0.12,1.12 -0.08,0.35 -0.2,0.69 -0.37,1.02 -0.17,0.34 -0.4,0.69 -0.69,1.07 -0.29,0.38 -0.61,0.77 -0.97,1.16 -0.35,0.4 -0.96,1.06 -1.82,1.96 -1.44,1.55 -2.51,2.89 -3.19,4.03 z"
       style="fill:#0000ff;fill-opacity:1;fill-rule:nonzero;stroke:none"
       transform="translate(432.98001,193.91999)"
       clip-path="url(#clipPath42)" /><path
       id="path43"
       d="M 23.431739,-82.257191 V -103.11317 H 217.54032 v 20.855979 z m 0,0"
       style="fill:#0000ff;fill-opacity:1;fill-rule:nonzero;stroke:none"
       aria-label="âˆ’"
       transform="matrix(0.052725,0,0,0.052443,438.23331,187.20053)"
       clip-path="url(#clipPath44)" /><path
       id="path45"
       d="m 109.35351,-41.439064 c 0,6.182307 0.29635,10.874902 0.88905,14.003298 0.74087,2.979426 2.07444,5.511937 3.85254,7.448564 1.77809,2.011112 4.22297,3.57531 7.40872,4.76708 3.33393,1.042799 7.48281,1.787655 12.44666,2.38354 4.88976,0.595885 11.33535,1.042799 19.26268,1.19177 V -0.02505303 H 37.044362 V -11.644812 c 11.631697,-0.372428 19.929469,-0.968313 24.893314,-1.787655 4.889758,-0.968313 8.668208,-2.38354 11.261261,-4.171195 2.741229,-1.936627 4.741584,-4.543624 5.92698,-7.746506 1.185396,-3.128396 1.778094,-8.491362 1.778094,-16.088896 V -169.85229 c 0,-4.1712 -0.81496,-7.15062 -2.370792,-8.93828 -1.407658,-1.93663 -3.4821,-2.97943 -6.223328,-2.97943 -3.408014,0 -8.223685,1.78766 -14.521101,5.36297 -6.149241,3.42634 -13.780227,8.04445 -22.818871,14.0033 l -6.816027,-11.9177 73.494548,-44.39344 h 8.59412 c -0.5927,10.13005 -0.88905,24.28232 -0.88905,42.30784 z m 0,0"
       style="fill:#0000ff;fill-opacity:1;fill-rule:nonzero;stroke:none"
       aria-label="1"
       transform="matrix(0.052725,0,0,0.052443,450.87887,187.20053)"
       clip-path="url(#clipPath46)" /><path
       id="path47"
       d="M 0,0 C 0.38,0.01 0.68,-0.01 0.9,-0.06 1.13,-0.1 1.31,-0.18 1.45,-0.3 1.59,-0.41 1.69,-0.56 1.77,-0.75 1.85,-0.93 1.95,-1.21 2.07,-1.6 H 3.03 L 2.83,1.92 H -6.58 V 1.31 c 0.33,-0.8 0.77,-1.62 1.33,-2.47 0.56,-0.84 1.36,-1.83 2.39,-2.98 0.89,-0.97 1.53,-1.71 1.92,-2.23 0.44,-0.54 0.76,-1.02 0.97,-1.42 0.21,-0.4 0.36,-0.78 0.45,-1.14 0.1,-0.35 0.14,-0.71 0.14,-1.08 0,-0.57 -0.09,-1.08 -0.27,-1.52 -0.18,-0.44 -0.47,-0.78 -0.85,-1.04 -0.38,-0.25 -0.85,-0.38 -1.43,-0.39 -1.42,0.01 -2.38,0.81 -2.88,2.4 h -1.45 v -2.21 c 0.93,-0.45 1.8,-0.78 2.61,-0.99 0.82,-0.2 1.54,-0.31 2.18,-0.32 1.44,0.01 2.52,0.33 3.25,0.96 0.73,0.64 1.09,1.56 1.09,2.76 0,0.41 -0.04,0.78 -0.12,1.12 -0.08,0.35 -0.2,0.69 -0.37,1.02 -0.17,0.34 -0.4,0.69 -0.69,1.07 -0.29,0.38 -0.61,0.77 -0.97,1.16 -0.35,0.4 -0.96,1.06 -1.82,1.96 -1.44,1.55 -2.51,2.89 -3.19,4.03 z"
       style="fill:#0000ff;fill-opacity:1;fill-rule:nonzero;stroke:none"
       transform="translate(493.94,193.91999)"
       clip-path="url(#clipPath48)" /><path
       id="path49"
       d="M 23.403044,-82.257191 V -103.11317 H 217.51163 v 20.855979 z m 0,0"
       style="fill:#0000ff;fill-opacity:1;fill-rule:nonzero;stroke:none"
       aria-label="âˆ’"
       transform="matrix(0.052725,0,0,0.052443,499.19186,187.20053)"
       clip-path="url(#clipPath50)" /><path
       id="path51"
       d="m 110.51021,-25.350168 c 5.11202,0 9.26091,-0.297942 12.44666,-0.893828 3.11166,-0.595885 5.63063,-1.564198 7.40872,-2.979425 1.92627,-1.564198 3.40802,-3.57531 4.44524,-5.95885 1.18539,-2.383541 2.66714,-6.033337 4.44523,-11.023874 h 13.33571 l -2.66714,46.18109197 H 20.420122 V -7.7715588 C 24.717183,-18.646461 30.792337,-29.893791 38.49741,-41.439064 c 7.705074,-11.694245 18.521811,-25.399601 32.598388,-41.116069 12.224395,-13.4819 21.040778,-23.686427 26.375059,-30.688077 5.926983,-7.74651 10.224043,-14.30125 13.039353,-19.66421 2.96349,-5.51194 5.03794,-10.80042 6.22333,-15.79095 1.33357,-4.91606 2.07444,-9.90659 2.07444,-14.89713 0,-7.89548 -1.33357,-14.89713 -3.85253,-20.85598 -2.59306,-6.10782 -6.51968,-10.8749 -11.85396,-14.30124 -5.186109,-3.57531 -11.557612,-5.36296 -19.262686,-5.36296 -19.781294,0 -33.042911,11.02387 -39.710763,33.07162 H 24.865357 v -30.39014 c 12.817093,-6.10782 24.74514,-10.50248 35.858227,-13.10947 11.038999,-2.75597 20.892603,-4.1712 29.634898,-4.1712 19.559028,0 34.228308,4.39465 44.155998,13.10947 10.07587,8.56585 15.1138,21.00495 15.1138,37.24282 0,5.58642 -0.5927,10.72593 -1.7781,15.49301 -1.03722,4.76708 -2.66714,9.45968 -5.03793,14.0033 -2.37079,4.61811 -5.55654,9.53416 -9.48317,14.89713 -4.00071,5.21399 -8.44594,10.57696 -13.3357,16.08889 -4.74158,5.36297 -13.03936,14.450214 -24.893315,27.112772 -20.003556,21.079434 -34.598743,39.55187 -43.859649,55.41731 z m 0,0"
       style="fill:#0000ff;fill-opacity:1;fill-rule:nonzero;stroke:none"
       aria-label="2"
       transform="matrix(0.052725,0,0,0.052443,511.83741,187.20053)"
       clip-path="url(#clipPath52)" /><path
       id="path53"
       d="M 0,0 C 0.38,0.01 0.68,-0.01 0.9,-0.06 1.13,-0.1 1.31,-0.18 1.45,-0.3 1.59,-0.41 1.69,-0.56 1.77,-0.75 1.85,-0.93 1.95,-1.21 2.07,-1.6 H 3.03 L 2.83,1.92 H -6.58 V 1.31 c 0.33,-0.8 0.77,-1.62 1.33,-2.47 0.56,-0.84 1.36,-1.83 2.39,-2.98 0.89,-0.97 1.53,-1.71 1.92,-2.23 0.44,-0.54 0.76,-1.02 0.97,-1.42 0.21,-0.4 0.36,-0.78 0.45,-1.14 0.1,-0.35 0.14,-0.71 0.14,-1.08 0,-0.57 -0.09,-1.08 -0.27,-1.52 -0.18,-0.44 -0.47,-0.78 -0.85,-1.04 -0.38,-0.25 -0.85,-0.38 -1.43,-0.39 -1.42,0.01 -2.38,0.81 -2.88,2.4 h -1.45 v -2.21 c 0.93,-0.45 1.8,-0.78 2.61,-0.99 0.82,-0.2 1.54,-0.31 2.18,-0.32 1.44,0.01 2.52,0.33 3.25,0.96 0.73,0.64 1.09,1.56 1.09,2.76 0,0.41 -0.04,0.78 -0.12,1.12 -0.08,0.35 -0.2,0.69 -0.37,1.02 -0.17,0.34 -0.4,0.69 -0.69,1.07 -0.29,0.38 -0.61,0.77 -0.97,1.16 -0.35,0.4 -0.96,1.06 -1.82,1.96 -1.44,1.55 -2.51,2.89 -3.19,4.03 z"
       style="fill:#0000ff;fill-opacity:1;fill-rule:nonzero;stroke:none"
       transform="translate(554.90002,193.91999)"
       clip-path="url(#clipPath54)" /><path
       id="path55"
       d="M 23.385336,-82.257191 V -103.11317 H 217.49392 v 20.855979 z m 0,0"
       style="fill:#0000ff;fill-opacity:1;fill-rule:nonzero;stroke:none"
       aria-label="âˆ’"
       transform="matrix(0.052725,0,0,0.052443,559.99748,187.20053)"
       clip-path="url(#clipPath56)" /><path
       id="path57"
       d="m 24.913211,-171.34201 v -30.09219 c 12.224395,-5.7354 23.559744,-9.98108 34.080132,-12.81153 10.668564,-2.97943 20.892604,-4.46914 30.820294,-4.46914 11.853963,0 22.226173,1.93663 31.116643,5.66091 9.03864,3.79877 16.00285,9.16173 20.74443,16.0889 4.74158,6.77819 7.11237,14.89712 7.11237,24.43128 0,9.16174 -1.92626,17.1317 -5.63063,23.83541 -3.55618,6.77819 -8.59412,12.73704 -15.11379,17.87655 -6.37151,4.99053 -14.66928,9.98107 -24.89332,14.89712 v 1.19177 c 6.29742,1.19177 12.44666,3.20289 18.37364,5.95885 5.92698,2.83046 11.11309,6.48025 15.70649,11.023878 4.74159,4.394652 8.44595,9.683132 11.26127,15.790954 2.74122,6.182307 4.14888,13.258442 4.14888,21.153919 0,12.364615 -2.66714,23.239517 -8.00142,32.773678 -5.18611,9.38519 -13.26162,16.833753 -24.30062,22.3456899 -10.89082,5.58642244 -24.15244,8.3423908 -39.710761,8.3423908 -9.112731,0 -18.892248,-1.0427988 -29.338549,-2.97942526 C 40.990143,-2.4830789 31.506975,-5.2390473 22.838768,-8.6653863 V -42.332892 h 18.669986 c 3.704362,10.949388 8.59412,18.919351 14.5211,23.835402 6.075154,4.990538 14.372925,7.448563 24.893314,7.448563 13.632053,0 23.856092,-3.649796 30.820292,-11.023873 6.89012,-7.523049 10.37222,-18.621408 10.37222,-33.369563 0,-15.493012 -4.6675,-27.187256 -13.92841,-35.157219 -9.112727,-8.118933 -22.670693,-12.215648 -40.599806,-12.215648 H 53.659062 v -14.00329 c 14.002489,-0.74486 25.856448,-3.42634 35.561877,-8.04445 9.853604,-4.76708 17.040071,-10.72593 21.633481,-17.87655 4.74158,-7.2996 7.11237,-15.5675 7.11237,-24.72923 0,-11.69425 -3.11166,-20.70701 -9.18682,-27.11277 -6.14924,-6.33128 -15.113796,-9.53416 -26.967755,-9.53416 -9.927691,0 -18.003201,2.68148 -24.300616,8.04444 -6.149242,5.36297 -10.668564,13.63087 -13.632054,24.72923 z m 0,0"
       style="fill:#0000ff;fill-opacity:1;fill-rule:nonzero;stroke:none"
       aria-label="3"
       transform="matrix(0.052725,0,0,0.052443,572.63567,187.20053)"
       clip-path="url(#clipPath58)" /><path
       id="path59"
       d="M 0,0 V 2.72 H -2.41 V 0 Z M 5.76,0 V 2.72 H 3.35 V 0 Z m 5.76,0 V 2.72 H 9.11 V 0 Z"
       style="fill:#0000ff;fill-opacity:1;fill-rule:nonzero;stroke:none"
       transform="translate(612.96997,193.11999)"
       clip-path="url(#clipPath60)" /><path
       id="path61"
       d="M 0,0 C 0.38,0.01 0.68,-0.01 0.9,-0.06 1.13,-0.1 1.31,-0.18 1.45,-0.3 1.59,-0.41 1.69,-0.56 1.77,-0.75 1.85,-0.93 1.95,-1.21 2.07,-1.6 H 3.03 L 2.83,1.92 H -6.58 V 1.31 c 0.33,-0.8 0.77,-1.62 1.33,-2.47 0.56,-0.84 1.36,-1.83 2.39,-2.98 0.89,-0.97 1.53,-1.71 1.92,-2.23 0.44,-0.54 0.76,-1.02 0.97,-1.42 0.21,-0.4 0.36,-0.78 0.45,-1.14 0.1,-0.35 0.14,-0.71 0.14,-1.08 0,-0.57 -0.09,-1.08 -0.27,-1.52 -0.18,-0.44 -0.47,-0.78 -0.85,-1.04 -0.38,-0.25 -0.85,-0.38 -1.43,-0.39 -1.42,0.01 -2.38,0.81 -2.88,2.4 h -1.45 v -2.21 c 0.93,-0.45 1.8,-0.78 2.61,-0.99 0.82,-0.2 1.54,-0.31 2.18,-0.32 1.44,0.01 2.52,0.33 3.25,0.96 0.73,0.64 1.09,1.56 1.09,2.76 0,0.41 -0.04,0.78 -0.12,1.12 -0.08,0.35 -0.2,0.69 -0.37,1.02 -0.17,0.34 -0.4,0.69 -0.69,1.07 -0.29,0.38 -0.61,0.77 -0.97,1.16 -0.35,0.4 -0.96,1.06 -1.82,1.96 -1.44,1.55 -2.51,2.89 -3.19,4.03 z"
       style="fill:#0000ff;fill-opacity:1;fill-rule:nonzero;stroke:none"
       transform="translate(657.94,193.91999)"
       clip-path="url(#clipPath62)" /><path
       id="path63"
       d="M 23.431994,-82.257191 V -103.11317 H 217.54058 v 20.855979 z m 0,0"
       style="fill:#0000ff;fill-opacity:1;fill-rule:nonzero;stroke:none"
       aria-label="âˆ’"
       transform="matrix(0.052725,0,0,0.052443,663.03799,187.20053)"
       clip-path="url(#clipPath64)" /><path
       id="path65"
       d="m 61.659554,-46.206145 c -2.222617,9.981075 -3.259838,18.174494 -3.259838,24.72923 0,3.426339 0.444523,5.958851 1.481744,7.746506 0.963135,1.787655 2.444879,3.202882 4.445235,4.1711951 2.14853,0.8193419 5.778805,1.415227 10.964912,1.7876551 l -1.481745,7.74650577 H 8.9094358 L 10.68753,-7.7715588 c 3.926624,-0.595885 6.890113,-1.5641982 8.890469,-2.9794252 2.14853,-1.564198 3.852537,-3.57531 5.037933,-5.958851 1.33357,-2.532511 2.667141,-5.660908 3.852536,-9.236218 1.185396,-3.724282 2.96349,-10.800417 5.334282,-21.153919 L 60.474158,-168.95847 c 2.370792,-10.72593 3.556188,-19.06832 3.556188,-25.02717 0,-5.13951 -1.33357,-8.71482 -3.852537,-10.72593 -2.370791,-2.16008 -6.223328,-3.35185 -11.55761,-3.57531 l 1.481745,-7.74651 H 192.34945 l -10.96491,48.56464 h -15.1138 c -0.44452,-8.11894 -1.1113,-14.45022 -2.07444,-19.06833 -0.81496,-4.76708 -2.07444,-8.11893 -3.85254,-10.13004 -1.62991,-2.16008 -3.55618,-3.57531 -5.92697,-4.1712 -2.22262,-0.74485 -5.55655,-1.19177 -10.07587,-1.19177 H 95.739687 l -18.669986,86.10539 h 29.338549 c 4.74158,0 8.59412,-0.59588 11.55761,-1.78765 2.96349,-1.34074 5.70472,-3.72428 8.29777,-7.15062 2.74123,-3.35186 6.07516,-9.01276 10.07587,-16.98273 h 14.22475 l -15.41015,66.73913 h -13.63205 c 0,-10.502474 -0.44453,-17.131695 -1.1854,-19.962149 -0.5927,-2.755969 -1.92627,-4.61811 -3.85253,-5.660911 -2.00036,-0.96831 -5.8529,-1.48971 -11.55761,-1.48971 H 74.106211 Z m 0,0"
       style="fill:#0000ff;fill-opacity:1;fill-rule:nonzero;stroke:none"
       aria-label="ð¹"
       transform="matrix(0.052725,0,0,0.052443,675.67088,187.20053)"
       clip-path="url(#clipPath66)" /><path
       id="path67"
       d="M 16.64322,-6.0513982 V -34.210894 c 14.240037,10.719808 30.080077,15.999714 47.360121,15.999714 23.040059,0 34.560089,-7.679863 34.560089,-23.039587 0,-4.47992 -1.120003,-8.159854 -3.200008,-11.1998 -1.920005,-2.959947 -4.640012,-5.599899 -8.000021,-7.999856 -3.200008,-2.319959 -7.200018,-4.47992 -11.84003,-6.399886 -4.480012,-1.919965 -9.280024,-3.839931 -14.400037,-5.759896 -7.280019,-2.959947 -13.680035,-5.839896 -19.200049,-8.639846 -5.600014,-2.959947 -10.160026,-6.239888 -13.760035,-9.919822 -3.68001,-3.839931 -6.400017,-8.079855 -8.320022,-12.799767 -1.920005,-4.63992 -2.880007,-10.07982 -2.880007,-16.31971 0,-7.67986 1.680004,-14.47974 5.120013,-20.47963 3.600009,-5.9199 8.320021,-10.87981 14.080036,-14.71974 5.920015,-3.99993 12.640032,-7.03987 20.160052,-8.95984 7.680019,-2.07996 15.440039,-3.19994 23.36006,-3.19994 14.240036,0 26.960068,2.47995 38.080098,7.35987 v 26.55952 c -12.00003,-7.83986 -25.840067,-11.83979 -41.600108,-11.83979 -4.960012,0 -9.440024,0.55999 -13.440034,1.59997 -3.84001,1.11998 -7.200018,2.71995 -9.920025,4.79992 -2.800007,1.91996 -5.040013,4.39992 -6.720018,7.35987 -1.520003,2.79995 -2.240005,5.91989 -2.240005,9.27983 0,4.31992 0.720002,7.91986 2.240005,10.8798 1.680005,2.79995 4.000011,5.35991 7.040019,7.67987 2.960007,2.15996 6.560016,4.159922 10.880027,6.079888 4.240011,1.759968 9.040024,3.679934 14.400037,5.759896 7.200019,2.79995 13.760035,5.679899 19.52005,8.639845 5.760012,2.79995 10.640032,6.079892 14.720042,9.919823 4.00001,3.679934 7.12001,7.919858 9.28002,12.79977 2.32001,4.719916 3.52001,10.399814 3.52001,16.959696 0,8.159854 -1.84001,15.199728 -5.44002,21.119622 -3.68,5.999892 -8.48002,11.039802 -14.40003,15.0397305 C 99.603433,-3.8114384 92.643415,-0.93148997 84.803395,0.98847563 77.123375,2.9084412 68.963354,3.868424 60.483332,3.868424 c -16.880043,0 -31.52008,-3.35993977 -43.840112,-9.9198222 z M 177.60363,-205.40783 c -4.72001,0 -8.80002,-1.59997 -12.16003,-4.79991 -3.20001,-3.19994 -4.80001,-7.19987 -4.80001,-12.15978 0,-4.87991 1.6,-8.95984 4.80001,-12.15978 3.36001,-3.35994 7.44002,-5.11991 12.16003,-5.11991 4.88001,0 8.96003,1.75997 12.16003,5.11991 3.36001,3.19994 5.12002,7.27987 5.12002,12.15978 0,4.71991 -1.76001,8.79984 -5.12002,12.15978 -3.2,3.19994 -7.28002,4.79991 -12.16003,4.79991 z M 190.40366,0.02849283 H 164.1636 V -163.80857 h 26.24006 z M 385.92417,-13.091272 c 0,60.158922 -28.80008,90.238383 -86.40023,90.238383 -20.32005,0 -38.00009,-3.839931 -53.12013,-11.519794 V 39.387788 c 18.56005,10.239816 36.16009,15.359724 52.80013,15.359724 40.32011,0 60.48016,-21.439616 60.48016,-64.3188471 V -27.491014 h -0.64 c -12.40004,20.9596244 -31.20008,31.359438 -56.32015,31.359438 -20.32005,0 -36.72009,-7.199871 -49.28012,-21.75961 -12.40004,-14.719736 -18.56005,-34.319385 -18.56005,-58.878945 0,-27.679499 6.72002,-49.759109 20.16005,-66.238809 13.44003,-16.39971 31.76008,-24.63956 55.04014,-24.63956 21.92006,0 38.2401,8.87984 48.96013,26.55952 h 0.64 v -22.71959 h 26.24007 z M 359.6841,-74.210177 v -23.99957 c 0,-12.959763 -4.40001,-24.079573 -13.12004,-33.279403 -8.80002,-9.35983 -19.76005,-14.07975 -32.96008,-14.07975 -16.24004,0 -28.96007,5.9199 -38.0801,17.59969 -9.20002,11.75979 -13.76003,28.319489 -13.76003,49.599108 0,18.159674 4.32001,32.799412 13.12003,43.839214 8.96002,10.879805 20.64005,16.319708 35.20009,16.319708 14.72004,0 26.64007,-5.199907 35.84009,-15.679719 9.12003,-10.399814 13.76004,-23.839573 13.76004,-40.319278 z M 575.44465,0.02849283 H 549.20458 V -93.409833 c 0,-34.719377 -12.72003,-52.159067 -38.08009,-52.159067 -13.04004,0 -23.92007,4.95991 -32.64009,14.71974 -8.56002,9.83982 -12.80003,22.3196 -12.80003,37.439327 V 0.02849283 H 439.4443 V -163.80857 h 26.24007 v 27.19951 h 0.64 c 12.32003,-20.63963 30.24008,-31.03944 53.76014,-31.03944 17.92004,0 31.52008,5.75989 40.9601,17.27969 9.60003,11.51979 14.40004,28.31949 14.40004,50.2391 z M 738.32507,-23.651083 h -0.64 V 0.02849283 H 711.445 V -242.52716 h 26.24007 v 107.51807 h 0.64 c 12.96003,-21.75961 31.84008,-32.63941 56.64014,-32.63941 21.12006,0 37.5201,7.35987 49.28013,22.0796 11.92003,14.55974 17.92004,34.15939 17.92004,58.878947 0,27.35951 -6.72001,49.279117 -20.16005,65.918819 -13.28003,16.4797042 -31.36008,24.639558 -54.40014,24.639558 -21.76005,0 -38.24009,-9.1198366 -49.28012,-27.519507 z m -0.64,-66.238813 v 23.039587 c 0,13.439759 4.32001,24.959553 13.12003,34.559381 8.96002,9.439831 20.16005,14.079748 33.60009,14.079748 16.00004,0 28.48007,-6.079891 37.44009,-18.239673 8.96002,-12.159783 13.44004,-29.119479 13.44004,-50.879089 0,-18.079678 -4.32002,-32.319418 -12.80004,-42.559238 -8.32002,-10.39981 -19.68005,-15.67972 -33.92008,-15.67972 -15.36004,0 -27.76007,5.35991 -37.1201,15.99972 -9.20002,10.47981 -13.76003,23.67957 -13.76003,39.679284 z M 918.16553,-205.40783 c -4.72001,0 -8.80002,-1.59997 -12.16003,-4.79991 -3.20001,-3.19994 -4.80002,-7.19987 -4.80002,-12.15978 0,-4.87991 1.60001,-8.95984 4.80002,-12.15978 3.36001,-3.35994 7.44002,-5.11991 12.16003,-5.11991 4.88001,0 8.96002,1.75997 12.16003,5.11991 3.36001,3.19994 5.12001,7.27987 5.12001,12.15978 0,4.71991 -1.76,8.79984 -5.12001,12.15978 -3.20001,3.19994 -7.28002,4.79991 -12.16003,4.79991 z M 930.96556,0.02849283 H 904.72549 V -163.80857 h 26.24007 z M 1059.5259,-1.5714785 c -6.24,3.3599398 -14.4,5.1199083 -24.6401,5.1199083 -28.64,0 -42.88008,-15.9997138 -42.88008,-47.9991398 v -96.95826 h -28.16008 v -22.3996 h 28.16008 v -39.99928 l 26.24008,-8.63985 v 48.63913 h 41.2801 v 22.3996 h -41.2801 v 92.158346 c 0,11.119801 1.76,19.039659 5.44,23.679576 3.84,4.719915 10,7.039873 18.56,7.039873 6.5601,0 12.3201,-1.759968 17.2801,-5.439902 z m 0,0"
       style="fill:#c00000;fill-opacity:1;fill-rule:nonzero;stroke:none"
       aria-label="sign bit"
       transform="matrix(0.048828,0,0,0.048829,60.320157,140.96345)" /><path
       id="path68"
       d="m 40.011293,-205.40783 c -4.720012,0 -8.800022,-1.59997 -12.160031,-4.79991 -3.200008,-3.19994 -4.800012,-7.19987 -4.800012,-12.15978 0,-4.87991 1.600004,-8.95984 4.800012,-12.15978 3.360009,-3.35994 7.440019,-5.11991 12.160031,-5.11991 4.880013,0 8.960023,1.75997 12.160031,5.11991 3.360009,3.19994 5.120013,7.27987 5.120013,12.15978 0,4.71991 -1.760004,8.79984 -5.120013,12.15978 -3.200008,3.19994 -7.280018,4.79991 -12.160031,4.79991 z M 52.811326,0.02849283 H 26.571259 V -163.80857 h 26.240067 z m 188.400484,0 H 214.97174 V -93.409833 c 0,-34.719377 -12.72003,-52.159067 -38.0801,-52.159067 -13.04003,0 -23.92006,4.95991 -32.64008,14.71974 -8.56002,9.83982 -12.80003,22.3196 -12.80003,37.439327 V 0.02849283 H 105.21146 V -163.80857 h 26.24007 v 27.19951 h 0.64 c 12.32003,-20.63963 30.24008,-31.03944 53.76014,-31.03944 17.92004,0 31.52008,5.75989 40.9601,17.27969 9.60003,11.51979 14.40004,28.31949 14.40004,50.2391 z M 368.17213,-1.5714785 c -6.24001,3.3599398 -14.40003,5.1199083 -24.64006,5.1199083 -28.64007,0 -42.88011,-15.9997138 -42.88011,-47.9991398 v -96.95826 h -28.16007 v -22.3996 h 28.16007 v -39.99928 l 26.24007,-8.63985 v 48.63913 h 41.2801 v 22.3996 h -41.2801 v 92.158346 c 0,11.119801 1.76,19.039659 5.44001,23.679576 3.84001,4.719915 10.00003,7.039873 18.56005,7.039873 6.56002,0 12.32003,-1.759968 17.28004,-5.439902 z M 535.21256,-75.490154 h -115.8403 c 0.40001,18.39967 5.28002,32.559417 14.72004,42.559237 9.36003,9.839824 22.24006,14.719737 38.7201,14.719737 18.56005,0 35.52009,-6.079891 50.88013,-18.239673 v 24.639558 c -14.32004,10.4798122 -33.28008,15.679719 -56.96014,15.679719 -23.28006,0 -41.52011,-7.4398667 -54.72014,-22.399599 -13.28004,-14.879733 -19.84006,-35.839357 -19.84006,-62.718876 0,-25.599539 7.20002,-46.399169 21.76006,-62.398879 14.48004,-15.99972 32.40008,-23.99957 53.76014,-23.99957 21.52005,0 38.1601,6.95987 49.92013,20.79962 11.68003,13.91976 17.60004,33.11941 17.60004,57.598973 z m -26.88007,-22.079604 c -0.24,-15.119732 -4.00001,-26.879522 -11.20003,-35.199372 -7.04001,-8.47985 -16.96004,-12.79977 -29.76007,-12.79977 -12.40003,0 -22.96006,4.47992 -31.68008,13.43976 -8.56003,8.79984 -13.92004,20.31964 -16.00004,34.559382 z m 205.28053,84.478486 c 0,60.158922 -28.80008,90.238383 -86.40022,90.238383 -20.32006,0 -38.0001,-3.839931 -53.12014,-11.519794 V 39.387788 c 18.56005,10.239816 36.16009,15.359724 52.80014,15.359724 40.3201,0 60.48015,-21.439616 60.48015,-64.3188471 V -27.491014 h -0.64 C 674.33292,-6.5313896 655.53287,3.868424 630.4128,3.868424 c -20.32005,0 -36.72009,-7.199871 -49.28012,-21.75961 -12.40003,-14.719736 -18.56005,-34.319385 -18.56005,-58.878945 0,-27.679499 6.72002,-49.759109 20.16005,-66.238809 13.44004,-16.39971 31.76008,-24.63956 55.04014,-24.63956 21.92006,0 38.2401,8.87984 48.96013,26.55952 h 0.64 v -22.71959 h 26.24007 z m -26.24007,-61.118905 v -23.99957 c 0,-12.959763 -4.40001,-24.079573 -13.12003,-33.279403 -8.80003,-9.35983 -19.76005,-14.07975 -32.96009,-14.07975 -16.24004,0 -28.96007,5.9199 -38.08009,17.59969 -9.20003,11.75979 -13.76004,28.319489 -13.76004,49.599108 0,18.159674 4.32001,32.799412 13.12003,43.839214 8.96003,10.879805 20.64006,16.319708 35.20009,16.319708 14.72004,0 26.64007,-5.199907 35.8401,-15.679719 9.12002,-10.399814 13.76003,-23.839573 13.76003,-40.319278 z m 211.60054,-1.279977 H 783.1332 c 0.4,18.39967 5.28001,32.559417 14.72003,42.559237 9.36003,9.839824 22.24006,14.719737 38.7201,14.719737 18.56005,0 35.52009,-6.079891 50.88013,-18.239673 v 24.639558 c -14.32003,10.4798122 -33.28008,15.679719 -56.96014,15.679719 -23.28006,0 -41.52011,-7.4398667 -54.72014,-22.399599 -13.28004,-14.879733 -19.84005,-35.839357 -19.84005,-62.718876 0,-25.599539 7.20001,-46.399169 21.76005,-62.398879 14.48004,-15.99972 32.40008,-23.99957 53.76014,-23.99957 21.52005,0 38.1601,6.95987 49.92013,20.79962 11.68003,13.91976 17.60004,33.11941 17.60004,57.598973 z m -26.88007,-22.079604 c -0.24,-15.119732 -4.00001,-26.879522 -11.20003,-35.199372 -7.04001,-8.47985 -16.96004,-12.79977 -29.76007,-12.79977 -12.40003,0 -22.96006,4.47992 -31.68008,13.43976 -8.56002,8.79984 -13.92004,20.31964 -16.00004,34.559382 z m 150.88038,-39.679292 c -4.48,-3.59993 -11.12,-5.4399 -19.84,-5.4399 -11.12007,0 -20.48009,5.3599 -28.16011,15.99971 -7.52002,10.47982 -11.20003,24.87956 -11.20003,43.199229 V 0.02849283 H 937.53359 V -163.80857 h 26.24007 v 33.5994 h 0.64 c 3.84001,-11.5198 9.60002,-20.47964 17.28004,-26.87952 7.68002,-6.39989 16.16005,-9.59983 25.6001,-9.59983 6.8,0 12,0.79999 15.68,2.23996 z m 144.5604,113.597967 h -0.64 V 0.02849283 h -26.2401 V -242.52716 h 26.2401 v 107.51807 h 0.64 c 12.96,-21.75961 31.8401,-32.63941 56.6401,-32.63941 21.1201,0 37.5201,7.35987 49.2802,22.0796 11.92,14.55974 17.92,34.15939 17.92,58.878947 0,27.35951 -6.72,49.279117 -20.1601,65.918819 -13.28,16.4797042 -31.36,24.639558 -54.4001,24.639558 -21.76,0 -38.2401,-9.1198366 -49.2801,-27.519507 z m -0.64,-66.238813 v 23.039587 c 0,13.439759 4.32,24.959553 13.12,34.559381 8.96,9.439831 20.1601,14.079748 33.6001,14.079748 16,0 28.4801,-6.079891 37.4401,-18.239673 8.96,-12.159783 13.44,-29.119479 13.44,-50.879089 0,-18.079678 -4.32,-32.319418 -12.8,-42.559238 -8.32,-10.39981 -19.6801,-15.67972 -33.9201,-15.67972 -15.36,0 -27.7601,5.35991 -37.1201,15.99972 -9.2,10.47981 -13.76,23.67957 -13.76,39.679284 z m 180.5604,-115.517934 c -4.72,0 -8.8,-1.59997 -12.16,-4.79991 -3.2,-3.19994 -4.8,-7.19987 -4.8,-12.15978 0,-4.87991 1.6,-8.95984 4.8,-12.15978 3.36,-3.35994 7.44,-5.11991 12.16,-5.11991 4.8801,0 8.9601,1.75997 12.1601,5.11991 3.36,3.19994 5.12,7.27987 5.12,12.15978 0,4.71991 -1.76,8.79984 -5.12,12.15978 -3.2,3.19994 -7.28,4.79991 -12.1601,4.79991 z m 12.8001,205.43632283 h -26.2401 V -163.80857 h 26.2401 z M 1488.815,-1.5714785 c -6.24,3.3599398 -14.4,5.1199083 -24.6401,5.1199083 -28.64,0 -42.8801,-15.9997138 -42.8801,-47.9991398 v -96.95826 h -28.16 v -22.3996 h 28.16 v -39.99928 l 26.2401,-8.63985 v 48.63913 h 41.2801 v 22.3996 h -41.2801 v 92.158346 c 0,11.119801 1.76,19.039659 5.44,23.679576 3.84,4.719915 10,7.039873 18.5601,7.039873 6.56,0 12.32,-1.759968 17.28,-5.439902 z m 25.3601,-4.4799197 V -34.210894 c 14.24,10.719808 30.08,15.999714 47.3601,15.999714 23.04,0 34.5601,-7.679863 34.5601,-23.039587 0,-4.47992 -1.12,-8.159854 -3.2,-11.1998 -1.92,-2.959947 -4.64,-5.599899 -8.0001,-7.999856 -3.2,-2.319959 -7.2,-4.47992 -11.84,-6.399886 -4.48,-1.919965 -9.28,-3.839931 -14.4,-5.759896 -7.28,-2.959947 -13.6801,-5.839896 -19.2001,-8.639846 -5.6,-2.959947 -10.16,-6.239888 -13.76,-9.919822 -3.68,-3.839931 -6.4,-8.079855 -8.32,-12.799767 -1.92,-4.63992 -2.88,-10.07982 -2.88,-16.31971 0,-7.67986 1.68,-14.47974 5.12,-20.47963 3.6,-5.9199 8.32,-10.87981 14.08,-14.71974 5.92,-3.99993 12.64,-7.03987 20.1601,-8.95984 7.68,-2.07996 15.44,-3.19994 23.36,-3.19994 14.2401,0 26.9601,2.47995 38.0801,7.35987 v 26.55952 c -12,-7.83986 -25.84,-11.83979 -41.6001,-11.83979 -4.96,0 -9.44,0.55999 -13.44,1.59997 -3.84,1.11998 -7.2,2.71995 -9.92,4.79992 -2.8,1.91996 -5.0401,4.39992 -6.7201,7.35987 -1.52,2.79995 -2.24,5.91989 -2.24,9.27983 0,4.31992 0.72,7.91986 2.24,10.8798 1.68,2.79995 4.0001,5.35991 7.0401,7.67987 2.96,2.15996 6.56,4.159922 10.88,6.079888 4.24,1.759968 9.04,3.679934 14.4,5.759896 7.2,2.79995 13.7601,5.679899 19.5201,8.639845 5.76,2.79995 10.64,6.079892 14.72,9.919823 4,3.679934 7.12,7.919858 9.28,12.79977 2.32,4.719916 3.52,10.399814 3.52,16.959696 0,8.159854 -1.84,15.199728 -5.44,21.119622 -3.68,5.999892 -8.48,11.039802 -14.4,15.0397305 -6,3.8399311 -12.96,6.71987953 -20.8001,8.63984513 -7.68,1.91996557 -15.84,2.87994837 -24.32,2.87994837 -16.8801,0 -31.5201,-3.35993977 -43.8401,-9.9198222 z m 0,0"
       style="fill:#00b050;fill-opacity:1;fill-rule:nonzero;stroke:none"
       aria-label="integer bits"
       transform="matrix(0.048828,0,0,0.048829,215.67914,140.96345)" /><path
       id="path69"
       d="m 107.50638,-219.48757 c -5.12001,-2.95995 -10.880024,-4.47992 -17.28004,-4.47992 -18.400048,0 -27.520071,11.67979 -27.520071,34.87937 v 25.27955 h 38.400101 v 22.3996 H 62.706269 V 0.02849283 H 36.466202 V -141.40897 H 8.6261307 v -22.3996 H 36.466202 v -26.55953 c 0,-17.27969 4.880012,-30.79944 14.720038,-40.63927 10.000025,-9.99982 22.480057,-15.03973 37.440095,-15.03973 7.840021,0 14.160035,0.95999 18.880045,2.87995 z m 106.08028,82.23852 c -4.48002,-3.59993 -11.12003,-5.4399 -19.84006,-5.4399 -11.12002,0 -20.48005,5.3599 -28.16007,15.99971 -7.52002,10.47982 -11.20003,24.87956 -11.20003,43.199229 V 0.02849283 H 128.14644 V -163.80857 h 26.24006 v 33.5994 h 0.64001 c 3.84001,-11.5198 9.60002,-20.47964 17.28004,-26.87952 7.68002,-6.39989 16.16004,-9.59983 25.60007,-9.59983 6.80001,0 12.00003,0.79999 15.68004,2.23996 z M 360.30703,0.02849283 H 334.06696 V -25.571048 h -0.64 c -11.52003,19.6796469 -28.40007,29.439472 -50.56013,29.439472 -16.24004,0 -29.04007,-4.239924 -38.4001,-12.7997706 -9.20002,-8.7198434 -13.76003,-20.2396374 -13.76003,-34.5593804 0,-30.71945 18.00005,-48.479132 54.08014,-53.439043 l 49.28012,-7.03987 c 0,-27.67951 -11.36003,-41.59926 -33.92008,-41.59926 -19.68005,0 -37.4401,6.71988 -53.44014,20.15964 v -26.87952 c 16.16004,-10.23981 34.72009,-15.35972 55.68014,-15.35972 38.5601,0 57.92015,20.39963 57.92015,61.1189 z m -26.24007,-82.87851483 -39.6801,5.439903 c -12.16003,1.759968 -21.36005,4.719915 -27.52007,8.959839 -6.24001,4.319923 -9.28002,11.999785 -9.28002,23.039587 0,7.919858 2.88001,14.399742 8.64002,19.51965 5.76001,5.119909 13.28003,7.679863 22.72006,7.679863 12.96003,0 23.76006,-4.559919 32.32008,-13.759754 8.48002,-9.119836 12.80003,-20.63963 12.80003,-34.55938 z M 521.58744,-7.6513695 C 508.94741,0.02849283 494.06737,3.868424 476.78733,3.868424 c -23.28006,0 -42.16011,-7.5198652 -56.64015,-22.719593 -14.32003,-15.359725 -21.44005,-35.039372 -21.44005,-59.198939 0,-27.039512 7.68002,-48.719122 23.04006,-64.958832 15.52004,-16.39971 36.24009,-24.63956 62.08016,-24.63956 14.48003,0 27.20007,2.71995 38.08009,7.99985 v 26.87952 c -12.16003,-8.47985 -25.20006,-12.79977 -39.0401,-12.79977 -16.64004,0 -30.40007,5.99989 -41.2801,17.91968 -10.72003,11.99979 -16.00004,27.759503 -16.00004,47.359152 0,19.199656 4.96001,34.399384 15.04004,45.439186 10.24002,11.119801 23.76006,16.639702 40.6401,16.639702 14.24004,0 27.68007,-4.799914 40.3201,-14.399742 z m 115.2803,6.079891 c -6.24002,3.3599398 -14.40004,5.1199083 -24.64006,5.1199083 -28.64008,0 -42.88011,-15.9997138 -42.88011,-47.9991398 v -96.95826 h -28.16008 v -22.3996 h 28.16008 v -39.99928 l 26.24006,-8.63985 v 48.63913 h 41.28011 v 22.3996 h -41.28011 v 92.158346 c 0,11.119801 1.76001,19.039659 5.44002,23.679576 3.84001,4.719915 10.00002,7.039873 18.56004,7.039873 6.56002,0 12.32004,-1.759968 17.28005,-5.439902 z M 685.50786,-205.40783 c -4.72001,0 -8.80002,-1.59997 -12.16003,-4.79991 -3.20001,-3.19994 -4.80001,-7.19987 -4.80001,-12.15978 0,-4.87991 1.6,-8.95984 4.80001,-12.15978 3.36001,-3.35994 7.44002,-5.11991 12.16003,-5.11991 4.88002,0 8.96003,1.75997 12.16003,5.11991 3.36001,3.19994 5.12002,7.27987 5.12002,12.15978 0,4.71991 -1.76001,8.79984 -5.12002,12.15978 -3.2,3.19994 -7.28001,4.79991 -12.16003,4.79991 z M 698.3079,0.02849283 H 672.06783 V -163.80857 H 698.3079 Z M 819.18821,3.868424 c -24.16007,0 -43.44012,-7.6798624 -57.92015,-23.039587 -14.56004,-15.359725 -21.76006,-35.599362 -21.76006,-60.798911 0,-27.519506 7.44002,-48.959126 22.40006,-64.318846 15.12004,-15.51972 35.52009,-23.35958 61.12016,-23.35958 24.48006,0 43.60011,7.59986 57.28014,22.71959 13.60004,14.95973 20.48005,35.75936 20.48005,62.398882 0,26.079533 -7.36001,46.959159 -22.08005,62.718876 -14.72004,15.8397165 -34.56009,23.679576 -59.52015,23.679576 z m 1.92,-149.437324 c -16.88004,0 -30.24008,5.7599 -40.0001,17.27969 -9.84003,11.3598 -14.72004,27.11952 -14.72004,47.359154 0,19.439651 4.88001,34.799376 14.72004,46.079174 10.00002,11.119801 23.36006,16.639702 40.0001,16.639702 17.04004,0 30.08008,-5.439903 39.0401,-16.319708 9.12002,-11.039802 13.76004,-26.719521 13.76004,-47.039157 0,-20.479635 -4.64002,-36.239355 -13.76004,-47.359155 -8.96002,-11.0398 -22.00006,-16.6397 -39.0401,-16.6397 z M 1080.0689,0.02849283 h -26.2401 V -93.409833 c 0,-34.719377 -12.72,-52.159067 -38.0801,-52.159067 -13.04,0 -23.92005,4.95991 -32.64007,14.71974 -8.56003,9.83982 -12.80004,22.3196 -12.80004,37.439327 V 0.02849283 H 944.06853 V -163.80857 h 26.24006 v 27.19951 h 0.64 c 12.32004,-20.63963 30.24011,-31.03944 53.76011,-31.03944 17.9201,0 31.5201,5.75989 40.9601,17.27969 9.6001,11.51979 14.4001,28.31949 14.4001,50.2391 z m 164.9604,0 h -26.2401 V -25.571048 h -0.64 c -11.52,19.6796469 -28.4,29.439472 -50.5601,29.439472 -16.24,0 -29.0401,-4.239924 -38.4001,-12.7997706 -9.2,-8.7198434 -13.76,-20.2396374 -13.76,-34.5593804 0,-30.71945 18,-48.479132 54.0801,-53.439043 l 49.2801,-7.03987 c 0,-27.67951 -11.36,-41.59926 -33.9201,-41.59926 -19.68,0 -37.4401,6.71988 -53.4401,20.15964 v -26.87952 c 16.16,-10.23981 34.7201,-15.35972 55.6801,-15.35972 38.5601,0 57.9202,20.39963 57.9202,61.1189 z m -26.2401,-82.87851483 -39.6801,5.439903 c -12.16,1.759968 -21.36,4.719915 -27.52,8.959839 -6.2401,4.319923 -9.2801,11.999785 -9.2801,23.039587 0,7.919858 2.88,14.399742 8.6401,19.51965 5.76,5.119909 13.28,7.679863 22.72,7.679863 12.96,0 23.7601,-4.559919 32.3201,-13.759754 8.48,-9.119836 12.8,-20.63963 12.8,-34.55938 z m 102.1603,82.87851483 h -26.2401 V -242.52716 h 26.2401 z M 1491.9899,-23.651083 h -0.64 V 0.02849283 h -26.24 V -242.52716 h 26.24 v 107.51807 h 0.64 c 12.9601,-21.75961 31.8401,-32.63941 56.6402,-32.63941 21.12,0 37.5201,7.35987 49.2801,22.0796 11.92,14.55974 17.92,34.15939 17.92,58.878947 0,27.35951 -6.72,49.279117 -20.16,65.918819 -13.28,16.4797042 -31.3601,24.639558 -54.4001,24.639558 -21.7601,0 -38.2401,-9.1198366 -49.2802,-27.519507 z m -0.64,-66.238813 v 23.039587 c 0,13.439759 4.32,24.959553 13.1201,34.559381 8.96,9.439831 20.16,14.079748 33.6,14.079748 16.0001,0 28.4801,-6.079891 37.4401,-18.239673 8.9601,-12.159783 13.4401,-29.119479 13.4401,-50.879089 0,-18.079678 -4.32,-32.319418 -12.8001,-42.559238 -8.32,-10.39981 -19.68,-15.67972 -33.92,-15.67972 -15.3601,0 -27.7601,5.35991 -37.1201,15.99972 -9.2001,10.47981 -13.7601,23.67957 -13.7601,39.679284 z m 180.4805,-115.517934 c -4.72,0 -8.8,-1.59997 -12.16,-4.79991 -3.2001,-3.19994 -4.8001,-7.19987 -4.8001,-12.15978 0,-4.87991 1.6,-8.95984 4.8001,-12.15978 3.36,-3.35994 7.44,-5.11991 12.16,-5.11991 4.88,0 8.96,1.75997 12.16,5.11991 3.36,3.19994 5.12,7.27987 5.12,12.15978 0,4.71991 -1.76,8.79984 -5.12,12.15978 -3.2,3.19994 -7.28,4.79991 -12.16,4.79991 z m 12.8,205.43632283 h -26.24 V -163.80857 h 26.24 z m 128.5604,-1.59997133 c -6.2401,3.3599398 -14.4001,5.1199083 -24.6401,5.1199083 -28.6401,0 -42.8801,-15.9997138 -42.8801,-47.9991398 v -96.95826 h -28.1601 v -22.3996 h 28.1601 v -39.99928 l 26.24,-8.63985 v 48.63913 h 41.2802 v 22.3996 h -41.2802 v 92.158346 c 0,11.119801 1.76,19.039659 5.4401,23.679576 3.84,4.719915 10,7.039873 18.56,7.039873 6.56,0 12.32,-1.759968 17.2801,-5.439902 z m 25.36,-4.4799197 V -34.210894 c 14.2401,10.719808 30.0801,15.999714 47.3601,15.999714 23.0401,0 34.5601,-7.679863 34.5601,-23.039587 0,-4.47992 -1.12,-8.159854 -3.2,-11.1998 -1.92,-2.959947 -4.64,-5.599899 -8,-7.999856 -3.2,-2.319959 -7.2,-4.47992 -11.84,-6.399886 -4.48,-1.919965 -9.2801,-3.839931 -14.4001,-5.759896 -7.28,-2.959947 -13.68,-5.839896 -19.2,-8.639846 -5.6,-2.959947 -10.16,-6.239888 -13.7601,-9.919822 -3.68,-3.839931 -6.4,-8.079855 -8.32,-12.799767 -1.92,-4.63992 -2.88,-10.07982 -2.88,-16.31971 0,-7.67986 1.68,-14.47974 5.12,-20.47963 3.6,-5.9199 8.3201,-10.87981 14.0801,-14.71974 5.92,-3.99993 12.64,-7.03987 20.16,-8.95984 7.68,-2.07996 15.4401,-3.19994 23.3601,-3.19994 14.24,0 26.96,2.47995 38.0801,7.35987 v 26.55952 c -12.0001,-7.83986 -25.8401,-11.83979 -41.6001,-11.83979 -4.96,0 -9.4401,0.55999 -13.4401,1.59997 -3.84,1.11998 -7.2,2.71995 -9.92,4.79992 -2.8,1.91996 -5.04,4.39992 -6.72,7.35987 -1.52,2.79995 -2.24,5.91989 -2.24,9.27983 0,4.31992 0.72,7.91986 2.24,10.8798 1.68,2.79995 4,5.35991 7.04,7.67987 2.96,2.15996 6.56,4.159922 10.88,6.079888 4.24,1.759968 9.0401,3.679934 14.4001,5.759896 7.2,2.79995 13.76,5.679899 19.52,8.639845 5.76,2.79995 10.6401,6.079892 14.7201,9.919823 4,3.679934 7.12,7.919858 9.28,12.79977 2.32,4.719916 3.52,10.399814 3.52,16.959696 0,8.159854 -1.84,15.199728 -5.44,21.119622 -3.68,5.999892 -8.48,11.039802 -14.4001,15.0397305 -6,3.8399311 -12.96,6.71987953 -20.8,8.63984513 -7.68,1.91996557 -15.8401,2.87994837 -24.3201,2.87994837 -16.88,0 -31.5201,-3.35993977 -43.8401,-9.9198222 z m 0,0"
       style="fill:#0000ff;fill-opacity:1;fill-rule:nonzero;stroke:none"
       aria-label="fractional bits"
       transform="matrix(0.048828,0,0,0.048829,505.43818,140.96345)" /><path
       id="path70"
       d="M 396.79999,234.39999 V 212.64"
       style="fill:none;stroke:#000000;stroke-width:0.96;stroke-linecap:round;stroke-linejoin:round;stroke-miterlimit:10;stroke-dasharray:none;stroke-opacity:1"
       clip-path="url(#clipPath71)" /><path
       id="path72"
       d="m 396.79999,206.08 4.48001,8.64 c -2.72,-1.28 -6.07999,-1.28 -8.79999,0 z"
       style="fill:#000000;fill-opacity:1;fill-rule:evenodd;stroke:none"
       clip-path="url(#clipPath73)" /><path
       id="path74"
       d="M 53.458826,-23.692105 H 52.818825 V -0.01252919 H 26.578758 V -242.56818 h 26.240067 v 107.51807 h 0.640001 c 12.960034,-21.75961 31.840082,-32.63941 56.640144,-32.63941 21.12006,0 37.5201,7.35986 49.28013,22.0796 11.92003,14.55974 17.92004,34.15939 17.92004,58.878945 0,27.35951 -6.72001,49.279117 -20.16005,65.918819 -13.28003,16.4797042 -31.36008,24.639558 -54.40014,24.639558 -21.760053,0 -38.240095,-9.1198366 -49.280124,-27.519507 z m -0.640001,-66.238813 v 23.039587 c 0,13.439759 4.320011,24.959553 13.120033,34.559381 8.960023,9.439831 20.160052,14.079748 33.600086,14.079748 16.000046,0 28.480076,-6.079891 37.440096,-18.239673 8.96002,-12.159783 13.44003,-29.119479 13.44003,-50.879089 0,-18.079676 -4.32001,-32.319416 -12.80003,-42.559236 -8.32002,-10.39981 -19.68005,-15.67972 -33.92009,-15.67972 -15.360034,0 -27.760066,5.3599 -37.12009,15.99971 -9.200024,10.47982 -13.760035,23.67958 -13.760035,39.679292 z M 233.29929,-205.44885 c -4.72002,0 -8.80003,-1.59997 -12.16003,-4.79991 -3.20001,-3.19994 -4.80002,-7.19987 -4.80002,-12.15978 0,-4.87992 1.60001,-8.95984 4.80002,-12.15979 3.36,-3.35994 7.44001,-5.1199 12.16003,-5.1199 4.88001,0 8.96002,1.75996 12.16003,5.1199 3.36001,3.19995 5.12001,7.27987 5.12001,12.15979 0,4.71991 -1.76,8.79984 -5.12001,12.15978 -3.20001,3.19994 -7.28002,4.79991 -12.16003,4.79991 z M 246.09932,-0.01252919 H 219.85925 V -163.84959 h 26.24007 z m 188.40048,0 H 408.25973 V -93.450855 c 0,-34.719375 -12.72003,-52.159065 -38.08009,-52.159065 -13.04004,0 -23.92006,4.95991 -32.64009,14.71974 -8.56002,9.83982 -12.80003,22.3196 -12.80003,37.439325 V -0.01252919 H 298.49945 V -163.84959 h 26.24007 v 27.19951 h 0.64 c 12.32003,-20.63963 30.24008,-31.03944 53.76014,-31.03944 17.92005,0 31.52008,5.75989 40.9601,17.27969 9.60003,11.51979 14.40004,28.31949 14.40004,50.2391 z m 168.24043,0 H 576.50017 V -25.61207 h -0.64001 c -11.52003,19.6796469 -28.40007,29.439472 -50.56013,29.439472 -16.24004,0 -29.04007,-4.23992403 -38.40009,-12.7997706 -9.20003,-8.7198434 -13.76004,-20.2396374 -13.76004,-34.5593804 0,-30.71945 18.00005,-48.479132 54.08014,-53.439043 l 49.28013,-7.039878 c 0,-27.6795 -11.36003,-41.59925 -33.92009,-41.59925 -19.68005,0 -37.4401,6.71988 -53.44014,20.15964 v -26.87952 c 16.16004,-10.23982 34.72009,-15.35972 55.68014,-15.35972 38.5601,0 57.92015,20.39963 57.92015,61.1189 z m -26.24006,-82.87851481 -39.68011,5.439903 c -12.16003,1.759968 -21.36005,4.719915 -27.52007,8.959839 -6.24001,4.319923 -9.28002,11.999785 -9.28002,23.039587 0,7.919858 2.88001,14.399742 8.64002,19.51965 5.76002,5.119909 13.28004,7.679863 22.72006,7.679863 12.96003,0 23.76006,-4.559919 32.32008,-13.759754 8.48002,-9.119836 12.80004,-20.63963 12.80004,-34.55938 z m 158.0804,-54.399026 c -4.48001,-3.59993 -11.12003,-5.4399 -19.84005,-5.4399 -11.12003,0 -20.48005,5.3599 -28.16007,15.99971 -7.52002,10.47981 -11.20003,24.87956 -11.20003,43.199227 V -0.01252919 H 649.14035 V -163.84959 h 26.24007 v 33.59939 h 0.64 c 3.84001,-11.51979 9.60002,-20.47963 17.28004,-26.87951 7.68002,-6.39989 16.16005,-9.59983 25.60007,-9.59983 6.80002,0 12.00003,0.79998 15.68004,2.23996 z m 159.84041,-26.55952 -75.52019,190.076591 c -13.44004,33.919392 -32.32009,50.879088 -56.64015,50.879088 -6.88002,0 -12.48003,-0.639989 -16.96004,-1.919966 V 51.506548 c 5.52001,1.919965 10.64002,2.879948 15.36004,2.879948 13.20003,0 23.12006,-7.919858 29.76007,-23.679576 L 803.54075,-0.33252346 739.54058,-163.84959 h 29.12008 l 44.48011,126.077737 c 0.4,1.519973 1.44,5.679899 3.20001,12.479777 h 0.96 c 0.64,-2.559954 1.68001,-6.559883 3.20001,-12.159782 l 46.72012,-126.397732 z m 145.36042,140.157485 h -0.6401 v 99.198223 h -26.24 V -163.84959 h 26.24 v 28.79948 h 0.6401 c 12.96,-21.75961 31.84,-32.63941 56.6401,-32.63941 21.1201,0 37.5201,7.35986 49.2801,22.0796 11.9201,14.55974 17.9201,34.15939 17.9201,58.878945 0,27.35951 -6.72,49.279117 -20.1601,65.918819 -13.28,16.4797042 -31.3601,24.639558 -54.4001,24.639558 -21.3601,0 -37.7601,-9.1198366 -49.2801,-27.519507 z m -0.6401,-66.238813 v 23.039587 c 0,13.439759 4.3201,24.959553 13.1201,34.559381 8.96,9.439831 20.16,14.079748 33.6001,14.079748 16,0 28.48,-6.079891 37.4401,-18.239673 8.96,-12.159783 13.44,-29.119479 13.44,-50.879089 0,-18.079676 -4.32,-32.319416 -12.8,-42.559236 -8.3201,-10.39981 -19.6801,-15.67972 -33.9201,-15.67972 -15.3601,0 -27.7601,5.3599 -37.1201,15.99971 -9.2,10.47982 -13.7601,23.67958 -13.7601,39.679292 z m 235.5207,93.75832 c -24.1601,0 -43.4402,-7.6798624 -57.9202,-23.039587 -14.56,-15.359725 -21.7601,-35.599362 -21.7601,-60.798911 0,-27.519504 7.4401,-48.959124 22.4001,-64.318844 15.12,-15.51972 35.5201,-23.35958 61.1202,-23.35958 24.48,0 43.6001,7.59986 57.2801,22.71959 13.6,14.95973 20.4801,35.75936 20.4801,62.39888 0,26.079533 -7.3601,46.959159 -22.0801,62.718876 -14.72,15.8397165 -34.5601,23.679576 -59.5201,23.679576 z m 1.92,-149.437322 c -16.8801,0 -30.2401,5.7599 -40.0001,17.27969 -9.8401,11.3598 -14.7201,27.11951 -14.7201,47.359152 0,19.439651 4.88,34.799376 14.7201,46.079174 10,11.119801 23.36,16.639702 40.0001,16.639702 17.04,0 30.08,-5.439903 39.0401,-16.319708 9.12,-11.039802 13.76,-26.719521 13.76,-47.039157 0,-20.479633 -4.64,-36.239353 -13.76,-47.359153 -8.9601,-11.0398 -22.0001,-16.6397 -39.0401,-16.6397 z m 133.1203,-59.83893 c -4.72,0 -8.8,-1.59997 -12.16,-4.79991 -3.2,-3.19994 -4.8,-7.19987 -4.8,-12.15978 0,-4.87992 1.6,-8.95984 4.8,-12.15979 3.36,-3.35994 7.44,-5.1199 12.16,-5.1199 4.88,0 8.96,1.75996 12.16,5.1199 3.36,3.19995 5.12,7.27987 5.12,12.15979 0,4.71991 -1.76,8.79984 -5.12,12.15978 -3.2,3.19994 -7.28,4.79991 -12.16,4.79991 z m 12.8,205.43632081 h -26.24 V -163.84959 h 26.24 z m 191.6805,0 h -26.24 V -93.450855 c 0,-34.719375 -12.7201,-52.159065 -38.0801,-52.159065 -13.0401,0 -23.9201,4.95991 -32.6401,14.71974 -8.56,9.83982 -12.8001,22.3196 -12.8001,37.439325 v 93.43832581 h -26.24 V -163.84959 h 26.24 v 27.19951 h 0.64 c 12.3201,-20.63963 30.2401,-31.03944 53.7602,-31.03944 17.92,0 31.5201,5.75989 40.9601,17.27969 9.6,11.51979 14.4,28.31949 14.4,50.2391 z m 123.6803,-1.59997131 c -6.24,3.3599398 -14.4,5.1199082 -24.64,5.1199082 -28.6401,0 -42.8801,-15.9997137 -42.8801,-47.9991397 v -96.958258 h -28.1601 v -22.3996 h 28.1601 v -39.99929 l 26.24,-8.63984 v 48.63913 h 41.2801 v 22.3996 h -41.2801 v 92.158344 c 0,11.119801 1.76,19.039659 5.44,23.679576 3.8401,4.719915 10.0001,7.039873 18.5601,7.039873 6.56,0 12.32,-1.759968 17.28,-5.439902 z m 0,0"
       style="fill:#000000;fill-opacity:1;fill-rule:nonzero;stroke:none"
       aria-label="binary point"
       transform="matrix(0.048828,0,0,0.048829,354.24127,252.63733)" /></g></svg>
